<svg xmlns="http://www.w3.org/2000/svg" xmlns:xlink="http://www.w3.org/1999/xlink" viewBox="0 0 199.09 54.33"><defs><style>.cls-1{fill:url(#linear-gradient);}.cls-2{fill:url(#linear-gradient-2);}.cls-3,.cls-5{fill:none;stroke-miterlimit:5.03;stroke-width:0.57px;}.cls-3{stroke:url(#linear-gradient-3);}.cls-4{fill:url(#linear-gradient-4);}.cls-5{stroke:url(#linear-gradient-5);}.cls-6{font-size:45px;fill:#fff;font-family:Eina01-Bold;font-weight:700;}</style><linearGradient id="linear-gradient" x1="-21.65" y1="133.29" x2="-21.65" y2="91.97" gradientTransform="matrix(1.26, 0, 0, -1.26, 53.2, 167.65)" gradientUnits="userSpaceOnUse"><stop offset="0" stop-color="#a4c1ff"/><stop offset="1" stop-color="#0e78f9"/></linearGradient><linearGradient id="linear-gradient-2" x1="-25.56" y1="120.46" x2="-25.56" y2="104.89" gradientTransform="matrix(1.26, 0, 0, -1.26, 53.2, 167.65)" gradientUnits="userSpaceOnUse"><stop offset="0" stop-color="#fff"/><stop offset="1" stop-color="#c5d4f7"/></linearGradient><linearGradient id="linear-gradient-3" x1="-25.56" y1="120.46" x2="-25.56" y2="104.89" gradientTransform="matrix(1.26, 0, 0, -1.26, 53.2, 167.65)" gradientUnits="userSpaceOnUse"><stop offset="0" stop-color="#fff"/><stop offset="1" stop-color="#637aca"/></linearGradient><linearGradient id="linear-gradient-4" x1="-11.01" y1="120.31" x2="-11.01" y2="105" xlink:href="#linear-gradient-2"/><linearGradient id="linear-gradient-5" x1="-11.01" y1="120.31" x2="-11.01" y2="105" xlink:href="#linear-gradient-3"/></defs><g id="Layer_2" data-name="Layer 2"><g id="Layer_1-2" data-name="Layer 1"><path class="cls-1" d="M18.44,0l2.85,0h9.34l2.85,0c2.59,0,5.18,0,6.94.08C46.81.5,51.22,4.37,51.79,11c.14,2.36.13,5.21.13,8.58h0V32.43c0,3.36,0,6.21-.13,8.58-.57,6.58-5,10.46-11.37,10.87-1.76.11-4.35.09-6.94.08l-2.85,0H21.29l-2.85,0c-2.59,0-5.18,0-6.94-.08C5.11,51.47.7,47.59.13,41,0,38.65,0,35.79,0,32.43H0V19.54H0C0,16.17,0,13.32.13,11,.7,4.37,5.11.5,11.5.09,13.26,0,15.85,0,18.44,0Z"/><path class="cls-2" d="M8.44,18.52a2.39,2.39,0,0,1,2.4-2.39H27.6a6,6,0,0,1,6,6.05V33.33a2.39,2.39,0,0,1-2.39,2.39H14.49a6,6,0,0,1-6.05-6Z"/><path class="cls-3" d="M10.84,16.41H27.6a5.76,5.76,0,0,1,5.76,5.77V33.33a2.11,2.11,0,0,1-2.11,2.11H14.49a5.76,5.76,0,0,1-5.76-5.77V18.52A2.11,2.11,0,0,1,10.84,16.41Z"/><path class="cls-4" d="M35.16,23.07a2.84,2.84,0,0,1,1-2.13l4.8-4.23a1.58,1.58,0,0,1,2.62,1.19V34a1.58,1.58,0,0,1-2.6,1.2l-4.41-3.74a3.91,3.91,0,0,1-1.37-3Z"/><path class="cls-5" d="M36.31,21.15l4.8-4.22a1.29,1.29,0,0,1,2.14,1V34a1.29,1.29,0,0,1-2.13,1l-4.4-3.75a3.6,3.6,0,0,1-1.28-2.76V23.07A2.55,2.55,0,0,1,36.31,21.15Z"/><text class="cls-6" transform="translate(56.01 42.36)">BOOM</text></g></g></svg>